<?xml version="1.0" encoding="utf-8"?>
<!DOCTYPE svg PUBLIC "-//W3C//DTD SVG 1.1//EN" "http://www.w3.org/Graphics/SVG/1.1/DTD/svg11.dtd">
<svg version="1.1" id="Layer_1" xmlns="http://www.w3.org/2000/svg" xmlns:xlink="http://www.w3.org/1999/xlink" x="0px" y="0px"
width="232px" height="232px" viewBox="0 0 232 232" enable-background="new 0 0 232 232" xml:space="preserve">
<rect x="0" y="0" width="232" height="232" fill="transparent" /><g transform="translate(16,16)"><g transform="translate(64,0) scale(0.08,0.08)"><g transform="" style="fill: rgb(56, 66, 89);">
<g>
	<circle cx="50" cy="50" r="30"/>
</g>
</g></g><g transform="translate(104,0) scale(0.08,0.08)"><g transform="" style="fill: rgb(56, 66, 89);">
<g>
	<circle cx="50" cy="50" r="30"/>
</g>
</g></g><g transform="translate(128,0) scale(0.08,0.08)"><g transform="" style="fill: rgb(56, 66, 89);">
<g>
	<circle cx="50" cy="50" r="30"/>
</g>
</g></g><g transform="translate(64,8) scale(0.08,0.08)"><g transform="" style="fill: rgb(56, 66, 89);">
<g>
	<circle cx="50" cy="50" r="30"/>
</g>
</g></g><g transform="translate(72,8) scale(0.08,0.08)"><g transform="" style="fill: rgb(56, 66, 89);">
<g>
	<circle cx="50" cy="50" r="30"/>
</g>
</g></g><g transform="translate(128,8) scale(0.08,0.08)"><g transform="" style="fill: rgb(56, 66, 89);">
<g>
	<circle cx="50" cy="50" r="30"/>
</g>
</g></g><g transform="translate(104,16) scale(0.08,0.08)"><g transform="" style="fill: rgb(56, 66, 89);">
<g>
	<circle cx="50" cy="50" r="30"/>
</g>
</g></g><g transform="translate(112,16) scale(0.08,0.08)"><g transform="" style="fill: rgb(56, 66, 89);">
<g>
	<circle cx="50" cy="50" r="30"/>
</g>
</g></g><g transform="translate(120,16) scale(0.08,0.08)"><g transform="" style="fill: rgb(56, 66, 89);">
<g>
	<circle cx="50" cy="50" r="30"/>
</g>
</g></g><g transform="translate(64,24) scale(0.08,0.08)"><g transform="" style="fill: rgb(56, 66, 89);">
<g>
	<circle cx="50" cy="50" r="30"/>
</g>
</g></g><g transform="translate(80,24) scale(0.08,0.08)"><g transform="" style="fill: rgb(56, 66, 89);">
<g>
	<circle cx="50" cy="50" r="30"/>
</g>
</g></g><g transform="translate(96,24) scale(0.08,0.08)"><g transform="" style="fill: rgb(56, 66, 89);">
<g>
	<circle cx="50" cy="50" r="30"/>
</g>
</g></g><g transform="translate(104,24) scale(0.08,0.08)"><g transform="" style="fill: rgb(56, 66, 89);">
<g>
	<circle cx="50" cy="50" r="30"/>
</g>
</g></g><g transform="translate(72,32) scale(0.08,0.08)"><g transform="" style="fill: rgb(56, 66, 89);">
<g>
	<circle cx="50" cy="50" r="30"/>
</g>
</g></g><g transform="translate(96,32) scale(0.08,0.08)"><g transform="" style="fill: rgb(56, 66, 89);">
<g>
	<circle cx="50" cy="50" r="30"/>
</g>
</g></g><g transform="translate(104,32) scale(0.08,0.08)"><g transform="" style="fill: rgb(56, 66, 89);">
<g>
	<circle cx="50" cy="50" r="30"/>
</g>
</g></g><g transform="translate(112,32) scale(0.08,0.08)"><g transform="" style="fill: rgb(56, 66, 89);">
<g>
	<circle cx="50" cy="50" r="30"/>
</g>
</g></g><g transform="translate(120,32) scale(0.08,0.08)"><g transform="" style="fill: rgb(56, 66, 89);">
<g>
	<circle cx="50" cy="50" r="30"/>
</g>
</g></g><g transform="translate(128,32) scale(0.08,0.08)"><g transform="" style="fill: rgb(56, 66, 89);">
<g>
	<circle cx="50" cy="50" r="30"/>
</g>
</g></g><g transform="translate(80,40) scale(0.08,0.08)"><g transform="" style="fill: rgb(56, 66, 89);">
<g>
	<circle cx="50" cy="50" r="30"/>
</g>
</g></g><g transform="translate(88,40) scale(0.08,0.08)"><g transform="" style="fill: rgb(56, 66, 89);">
<g>
	<circle cx="50" cy="50" r="30"/>
</g>
</g></g><g transform="translate(112,40) scale(0.08,0.08)"><g transform="" style="fill: rgb(56, 66, 89);">
<g>
	<circle cx="50" cy="50" r="30"/>
</g>
</g></g><g transform="translate(64,48) scale(0.08,0.08)"><g transform="" style="fill: rgb(56, 66, 89);">
<g>
	<circle cx="50" cy="50" r="30"/>
</g>
</g></g><g transform="translate(80,48) scale(0.08,0.08)"><g transform="" style="fill: rgb(56, 66, 89);">
<g>
	<circle cx="50" cy="50" r="30"/>
</g>
</g></g><g transform="translate(96,48) scale(0.08,0.08)"><g transform="" style="fill: rgb(56, 66, 89);">
<g>
	<circle cx="50" cy="50" r="30"/>
</g>
</g></g><g transform="translate(112,48) scale(0.08,0.08)"><g transform="" style="fill: rgb(56, 66, 89);">
<g>
	<circle cx="50" cy="50" r="30"/>
</g>
</g></g><g transform="translate(128,48) scale(0.08,0.08)"><g transform="" style="fill: rgb(56, 66, 89);">
<g>
	<circle cx="50" cy="50" r="30"/>
</g>
</g></g><g transform="translate(64,56) scale(0.08,0.08)"><g transform="" style="fill: rgb(56, 66, 89);">
<g>
	<circle cx="50" cy="50" r="30"/>
</g>
</g></g><g transform="translate(72,56) scale(0.08,0.08)"><g transform="" style="fill: rgb(56, 66, 89);">
<g>
	<circle cx="50" cy="50" r="30"/>
</g>
</g></g><g transform="translate(88,56) scale(0.08,0.08)"><g transform="" style="fill: rgb(56, 66, 89);">
<g>
	<circle cx="50" cy="50" r="30"/>
</g>
</g></g><g transform="translate(120,56) scale(0.08,0.08)"><g transform="" style="fill: rgb(56, 66, 89);">
<g>
	<circle cx="50" cy="50" r="30"/>
</g>
</g></g><g transform="translate(0,64) scale(0.08,0.08)"><g transform="" style="fill: rgb(56, 66, 89);">
<g>
	<circle cx="50" cy="50" r="30"/>
</g>
</g></g><g transform="translate(16,64) scale(0.08,0.08)"><g transform="" style="fill: rgb(56, 66, 89);">
<g>
	<circle cx="50" cy="50" r="30"/>
</g>
</g></g><g transform="translate(24,64) scale(0.08,0.08)"><g transform="" style="fill: rgb(56, 66, 89);">
<g>
	<circle cx="50" cy="50" r="30"/>
</g>
</g></g><g transform="translate(40,64) scale(0.08,0.08)"><g transform="" style="fill: rgb(56, 66, 89);">
<g>
	<circle cx="50" cy="50" r="30"/>
</g>
</g></g><g transform="translate(48,64) scale(0.08,0.08)"><g transform="" style="fill: rgb(56, 66, 89);">
<g>
	<circle cx="50" cy="50" r="30"/>
</g>
</g></g><g transform="translate(56,64) scale(0.08,0.08)"><g transform="" style="fill: rgb(56, 66, 89);">
<g>
	<circle cx="50" cy="50" r="30"/>
</g>
</g></g><g transform="translate(88,64) scale(0.08,0.08)"><g transform="" style="fill: rgb(56, 66, 89);">
<g>
	<circle cx="50" cy="50" r="30"/>
</g>
</g></g><g transform="translate(112,64) scale(0.08,0.08)"><g transform="" style="fill: rgb(56, 66, 89);">
<g>
	<circle cx="50" cy="50" r="30"/>
</g>
</g></g><g transform="translate(128,64) scale(0.08,0.08)"><g transform="" style="fill: rgb(56, 66, 89);">
<g>
	<circle cx="50" cy="50" r="30"/>
</g>
</g></g><g transform="translate(144,64) scale(0.08,0.08)"><g transform="" style="fill: rgb(56, 66, 89);">
<g>
	<circle cx="50" cy="50" r="30"/>
</g>
</g></g><g transform="translate(168,64) scale(0.08,0.08)"><g transform="" style="fill: rgb(56, 66, 89);">
<g>
	<circle cx="50" cy="50" r="30"/>
</g>
</g></g><g transform="translate(184,64) scale(0.08,0.08)"><g transform="" style="fill: rgb(56, 66, 89);">
<g>
	<circle cx="50" cy="50" r="30"/>
</g>
</g></g><g transform="translate(192,64) scale(0.08,0.08)"><g transform="" style="fill: rgb(56, 66, 89);">
<g>
	<circle cx="50" cy="50" r="30"/>
</g>
</g></g><g transform="translate(0,72) scale(0.08,0.08)"><g transform="" style="fill: rgb(56, 66, 89);">
<g>
	<circle cx="50" cy="50" r="30"/>
</g>
</g></g><g transform="translate(56,72) scale(0.08,0.08)"><g transform="" style="fill: rgb(56, 66, 89);">
<g>
	<circle cx="50" cy="50" r="30"/>
</g>
</g></g><g transform="translate(72,72) scale(0.08,0.08)"><g transform="" style="fill: rgb(56, 66, 89);">
<g>
	<circle cx="50" cy="50" r="30"/>
</g>
</g></g><g transform="translate(80,72) scale(0.08,0.08)"><g transform="" style="fill: rgb(56, 66, 89);">
<g>
	<circle cx="50" cy="50" r="30"/>
</g>
</g></g><g transform="translate(88,72) scale(0.08,0.08)"><g transform="" style="fill: rgb(56, 66, 89);">
<g>
	<circle cx="50" cy="50" r="30"/>
</g>
</g></g><g transform="translate(96,72) scale(0.08,0.08)"><g transform="" style="fill: rgb(56, 66, 89);">
<g>
	<circle cx="50" cy="50" r="30"/>
</g>
</g></g><g transform="translate(104,72) scale(0.08,0.08)"><g transform="" style="fill: rgb(56, 66, 89);">
<g>
	<circle cx="50" cy="50" r="30"/>
</g>
</g></g><g transform="translate(128,72) scale(0.08,0.08)"><g transform="" style="fill: rgb(56, 66, 89);">
<g>
	<circle cx="50" cy="50" r="30"/>
</g>
</g></g><g transform="translate(152,72) scale(0.08,0.08)"><g transform="" style="fill: rgb(56, 66, 89);">
<g>
	<circle cx="50" cy="50" r="30"/>
</g>
</g></g><g transform="translate(184,72) scale(0.08,0.08)"><g transform="" style="fill: rgb(56, 66, 89);">
<g>
	<circle cx="50" cy="50" r="30"/>
</g>
</g></g><g transform="translate(8,80) scale(0.08,0.08)"><g transform="" style="fill: rgb(56, 66, 89);">
<g>
	<circle cx="50" cy="50" r="30"/>
</g>
</g></g><g transform="translate(16,80) scale(0.08,0.08)"><g transform="" style="fill: rgb(56, 66, 89);">
<g>
	<circle cx="50" cy="50" r="30"/>
</g>
</g></g><g transform="translate(24,80) scale(0.08,0.08)"><g transform="" style="fill: rgb(56, 66, 89);">
<g>
	<circle cx="50" cy="50" r="30"/>
</g>
</g></g><g transform="translate(48,80) scale(0.08,0.08)"><g transform="" style="fill: rgb(56, 66, 89);">
<g>
	<circle cx="50" cy="50" r="30"/>
</g>
</g></g><g transform="translate(64,80) scale(0.08,0.08)"><g transform="" style="fill: rgb(56, 66, 89);">
<g>
	<circle cx="50" cy="50" r="30"/>
</g>
</g></g><g transform="translate(80,80) scale(0.08,0.08)"><g transform="" style="fill: rgb(56, 66, 89);">
<g>
	<circle cx="50" cy="50" r="30"/>
</g>
</g></g><g transform="translate(88,80) scale(0.08,0.08)"><g transform="" style="fill: rgb(56, 66, 89);">
<g>
	<circle cx="50" cy="50" r="30"/>
</g>
</g></g><g transform="translate(104,80) scale(0.08,0.08)"><g transform="" style="fill: rgb(56, 66, 89);">
<g>
	<circle cx="50" cy="50" r="30"/>
</g>
</g></g><g transform="translate(136,80) scale(0.08,0.08)"><g transform="" style="fill: rgb(56, 66, 89);">
<g>
	<circle cx="50" cy="50" r="30"/>
</g>
</g></g><g transform="translate(144,80) scale(0.08,0.08)"><g transform="" style="fill: rgb(56, 66, 89);">
<g>
	<circle cx="50" cy="50" r="30"/>
</g>
</g></g><g transform="translate(152,80) scale(0.08,0.08)"><g transform="" style="fill: rgb(56, 66, 89);">
<g>
	<circle cx="50" cy="50" r="30"/>
</g>
</g></g><g transform="translate(8,88) scale(0.08,0.08)"><g transform="" style="fill: rgb(56, 66, 89);">
<g>
	<circle cx="50" cy="50" r="30"/>
</g>
</g></g><g transform="translate(24,88) scale(0.08,0.08)"><g transform="" style="fill: rgb(56, 66, 89);">
<g>
	<circle cx="50" cy="50" r="30"/>
</g>
</g></g><g transform="translate(32,88) scale(0.08,0.08)"><g transform="" style="fill: rgb(56, 66, 89);">
<g>
	<circle cx="50" cy="50" r="30"/>
</g>
</g></g><g transform="translate(56,88) scale(0.08,0.08)"><g transform="" style="fill: rgb(56, 66, 89);">
<g>
	<circle cx="50" cy="50" r="30"/>
</g>
</g></g><g transform="translate(64,88) scale(0.08,0.08)"><g transform="" style="fill: rgb(56, 66, 89);">
<g>
	<circle cx="50" cy="50" r="30"/>
</g>
</g></g><g transform="translate(80,88) scale(0.08,0.08)"><g transform="" style="fill: rgb(56, 66, 89);">
<g>
	<circle cx="50" cy="50" r="30"/>
</g>
</g></g><g transform="translate(88,88) scale(0.08,0.08)"><g transform="" style="fill: rgb(56, 66, 89);">
<g>
	<circle cx="50" cy="50" r="30"/>
</g>
</g></g><g transform="translate(104,88) scale(0.08,0.08)"><g transform="" style="fill: rgb(56, 66, 89);">
<g>
	<circle cx="50" cy="50" r="30"/>
</g>
</g></g><g transform="translate(120,88) scale(0.08,0.08)"><g transform="" style="fill: rgb(56, 66, 89);">
<g>
	<circle cx="50" cy="50" r="30"/>
</g>
</g></g><g transform="translate(136,88) scale(0.08,0.08)"><g transform="" style="fill: rgb(56, 66, 89);">
<g>
	<circle cx="50" cy="50" r="30"/>
</g>
</g></g><g transform="translate(168,88) scale(0.08,0.08)"><g transform="" style="fill: rgb(56, 66, 89);">
<g>
	<circle cx="50" cy="50" r="30"/>
</g>
</g></g><g transform="translate(176,88) scale(0.08,0.08)"><g transform="" style="fill: rgb(56, 66, 89);">
<g>
	<circle cx="50" cy="50" r="30"/>
</g>
</g></g><g transform="translate(0,96) scale(0.08,0.08)"><g transform="" style="fill: rgb(56, 66, 89);">
<g>
	<circle cx="50" cy="50" r="30"/>
</g>
</g></g><g transform="translate(8,96) scale(0.08,0.08)"><g transform="" style="fill: rgb(56, 66, 89);">
<g>
	<circle cx="50" cy="50" r="30"/>
</g>
</g></g><g transform="translate(24,96) scale(0.08,0.08)"><g transform="" style="fill: rgb(56, 66, 89);">
<g>
	<circle cx="50" cy="50" r="30"/>
</g>
</g></g><g transform="translate(40,96) scale(0.08,0.08)"><g transform="" style="fill: rgb(56, 66, 89);">
<g>
	<circle cx="50" cy="50" r="30"/>
</g>
</g></g><g transform="translate(48,96) scale(0.08,0.08)"><g transform="" style="fill: rgb(56, 66, 89);">
<g>
	<circle cx="50" cy="50" r="30"/>
</g>
</g></g><g transform="translate(64,96) scale(0.08,0.08)"><g transform="" style="fill: rgb(56, 66, 89);">
<g>
	<circle cx="50" cy="50" r="30"/>
</g>
</g></g><g transform="translate(80,96) scale(0.08,0.08)"><g transform="" style="fill: rgb(56, 66, 89);">
<g>
	<circle cx="50" cy="50" r="30"/>
</g>
</g></g><g transform="translate(88,96) scale(0.08,0.08)"><g transform="" style="fill: rgb(56, 66, 89);">
<g>
	<circle cx="50" cy="50" r="30"/>
</g>
</g></g><g transform="translate(96,96) scale(0.08,0.08)"><g transform="" style="fill: rgb(56, 66, 89);">
<g>
	<circle cx="50" cy="50" r="30"/>
</g>
</g></g><g transform="translate(104,96) scale(0.08,0.08)"><g transform="" style="fill: rgb(56, 66, 89);">
<g>
	<circle cx="50" cy="50" r="30"/>
</g>
</g></g><g transform="translate(112,96) scale(0.08,0.08)"><g transform="" style="fill: rgb(56, 66, 89);">
<g>
	<circle cx="50" cy="50" r="30"/>
</g>
</g></g><g transform="translate(136,96) scale(0.08,0.08)"><g transform="" style="fill: rgb(56, 66, 89);">
<g>
	<circle cx="50" cy="50" r="30"/>
</g>
</g></g><g transform="translate(144,96) scale(0.08,0.08)"><g transform="" style="fill: rgb(56, 66, 89);">
<g>
	<circle cx="50" cy="50" r="30"/>
</g>
</g></g><g transform="translate(160,96) scale(0.08,0.08)"><g transform="" style="fill: rgb(56, 66, 89);">
<g>
	<circle cx="50" cy="50" r="30"/>
</g>
</g></g><g transform="translate(176,96) scale(0.08,0.08)"><g transform="" style="fill: rgb(56, 66, 89);">
<g>
	<circle cx="50" cy="50" r="30"/>
</g>
</g></g><g transform="translate(184,96) scale(0.08,0.08)"><g transform="" style="fill: rgb(56, 66, 89);">
<g>
	<circle cx="50" cy="50" r="30"/>
</g>
</g></g><g transform="translate(192,96) scale(0.08,0.08)"><g transform="" style="fill: rgb(56, 66, 89);">
<g>
	<circle cx="50" cy="50" r="30"/>
</g>
</g></g><g transform="translate(8,104) scale(0.08,0.08)"><g transform="" style="fill: rgb(56, 66, 89);">
<g>
	<circle cx="50" cy="50" r="30"/>
</g>
</g></g><g transform="translate(24,104) scale(0.08,0.08)"><g transform="" style="fill: rgb(56, 66, 89);">
<g>
	<circle cx="50" cy="50" r="30"/>
</g>
</g></g><g transform="translate(40,104) scale(0.08,0.08)"><g transform="" style="fill: rgb(56, 66, 89);">
<g>
	<circle cx="50" cy="50" r="30"/>
</g>
</g></g><g transform="translate(56,104) scale(0.08,0.08)"><g transform="" style="fill: rgb(56, 66, 89);">
<g>
	<circle cx="50" cy="50" r="30"/>
</g>
</g></g><g transform="translate(64,104) scale(0.08,0.08)"><g transform="" style="fill: rgb(56, 66, 89);">
<g>
	<circle cx="50" cy="50" r="30"/>
</g>
</g></g><g transform="translate(88,104) scale(0.08,0.08)"><g transform="" style="fill: rgb(56, 66, 89);">
<g>
	<circle cx="50" cy="50" r="30"/>
</g>
</g></g><g transform="translate(112,104) scale(0.08,0.08)"><g transform="" style="fill: rgb(56, 66, 89);">
<g>
	<circle cx="50" cy="50" r="30"/>
</g>
</g></g><g transform="translate(120,104) scale(0.08,0.08)"><g transform="" style="fill: rgb(56, 66, 89);">
<g>
	<circle cx="50" cy="50" r="30"/>
</g>
</g></g><g transform="translate(144,104) scale(0.08,0.08)"><g transform="" style="fill: rgb(56, 66, 89);">
<g>
	<circle cx="50" cy="50" r="30"/>
</g>
</g></g><g transform="translate(152,104) scale(0.08,0.08)"><g transform="" style="fill: rgb(56, 66, 89);">
<g>
	<circle cx="50" cy="50" r="30"/>
</g>
</g></g><g transform="translate(160,104) scale(0.08,0.08)"><g transform="" style="fill: rgb(56, 66, 89);">
<g>
	<circle cx="50" cy="50" r="30"/>
</g>
</g></g><g transform="translate(192,104) scale(0.08,0.08)"><g transform="" style="fill: rgb(56, 66, 89);">
<g>
	<circle cx="50" cy="50" r="30"/>
</g>
</g></g><g transform="translate(8,112) scale(0.08,0.08)"><g transform="" style="fill: rgb(56, 66, 89);">
<g>
	<circle cx="50" cy="50" r="30"/>
</g>
</g></g><g transform="translate(40,112) scale(0.08,0.08)"><g transform="" style="fill: rgb(56, 66, 89);">
<g>
	<circle cx="50" cy="50" r="30"/>
</g>
</g></g><g transform="translate(48,112) scale(0.08,0.08)"><g transform="" style="fill: rgb(56, 66, 89);">
<g>
	<circle cx="50" cy="50" r="30"/>
</g>
</g></g><g transform="translate(56,112) scale(0.08,0.08)"><g transform="" style="fill: rgb(56, 66, 89);">
<g>
	<circle cx="50" cy="50" r="30"/>
</g>
</g></g><g transform="translate(72,112) scale(0.08,0.08)"><g transform="" style="fill: rgb(56, 66, 89);">
<g>
	<circle cx="50" cy="50" r="30"/>
</g>
</g></g><g transform="translate(80,112) scale(0.08,0.08)"><g transform="" style="fill: rgb(56, 66, 89);">
<g>
	<circle cx="50" cy="50" r="30"/>
</g>
</g></g><g transform="translate(96,112) scale(0.08,0.08)"><g transform="" style="fill: rgb(56, 66, 89);">
<g>
	<circle cx="50" cy="50" r="30"/>
</g>
</g></g><g transform="translate(104,112) scale(0.08,0.08)"><g transform="" style="fill: rgb(56, 66, 89);">
<g>
	<circle cx="50" cy="50" r="30"/>
</g>
</g></g><g transform="translate(112,112) scale(0.08,0.08)"><g transform="" style="fill: rgb(56, 66, 89);">
<g>
	<circle cx="50" cy="50" r="30"/>
</g>
</g></g><g transform="translate(128,112) scale(0.08,0.08)"><g transform="" style="fill: rgb(56, 66, 89);">
<g>
	<circle cx="50" cy="50" r="30"/>
</g>
</g></g><g transform="translate(136,112) scale(0.08,0.08)"><g transform="" style="fill: rgb(56, 66, 89);">
<g>
	<circle cx="50" cy="50" r="30"/>
</g>
</g></g><g transform="translate(160,112) scale(0.08,0.08)"><g transform="" style="fill: rgb(56, 66, 89);">
<g>
	<circle cx="50" cy="50" r="30"/>
</g>
</g></g><g transform="translate(176,112) scale(0.08,0.08)"><g transform="" style="fill: rgb(56, 66, 89);">
<g>
	<circle cx="50" cy="50" r="30"/>
</g>
</g></g><g transform="translate(184,112) scale(0.08,0.08)"><g transform="" style="fill: rgb(56, 66, 89);">
<g>
	<circle cx="50" cy="50" r="30"/>
</g>
</g></g><g transform="translate(0,120) scale(0.08,0.08)"><g transform="" style="fill: rgb(56, 66, 89);">
<g>
	<circle cx="50" cy="50" r="30"/>
</g>
</g></g><g transform="translate(64,120) scale(0.08,0.08)"><g transform="" style="fill: rgb(56, 66, 89);">
<g>
	<circle cx="50" cy="50" r="30"/>
</g>
</g></g><g transform="translate(72,120) scale(0.08,0.08)"><g transform="" style="fill: rgb(56, 66, 89);">
<g>
	<circle cx="50" cy="50" r="30"/>
</g>
</g></g><g transform="translate(96,120) scale(0.08,0.08)"><g transform="" style="fill: rgb(56, 66, 89);">
<g>
	<circle cx="50" cy="50" r="30"/>
</g>
</g></g><g transform="translate(112,120) scale(0.08,0.08)"><g transform="" style="fill: rgb(56, 66, 89);">
<g>
	<circle cx="50" cy="50" r="30"/>
</g>
</g></g><g transform="translate(144,120) scale(0.08,0.08)"><g transform="" style="fill: rgb(56, 66, 89);">
<g>
	<circle cx="50" cy="50" r="30"/>
</g>
</g></g><g transform="translate(152,120) scale(0.08,0.08)"><g transform="" style="fill: rgb(56, 66, 89);">
<g>
	<circle cx="50" cy="50" r="30"/>
</g>
</g></g><g transform="translate(160,120) scale(0.08,0.08)"><g transform="" style="fill: rgb(56, 66, 89);">
<g>
	<circle cx="50" cy="50" r="30"/>
</g>
</g></g><g transform="translate(192,120) scale(0.08,0.08)"><g transform="" style="fill: rgb(56, 66, 89);">
<g>
	<circle cx="50" cy="50" r="30"/>
</g>
</g></g><g transform="translate(16,128) scale(0.08,0.08)"><g transform="" style="fill: rgb(56, 66, 89);">
<g>
	<circle cx="50" cy="50" r="30"/>
</g>
</g></g><g transform="translate(24,128) scale(0.08,0.08)"><g transform="" style="fill: rgb(56, 66, 89);">
<g>
	<circle cx="50" cy="50" r="30"/>
</g>
</g></g><g transform="translate(32,128) scale(0.08,0.08)"><g transform="" style="fill: rgb(56, 66, 89);">
<g>
	<circle cx="50" cy="50" r="30"/>
</g>
</g></g><g transform="translate(40,128) scale(0.08,0.08)"><g transform="" style="fill: rgb(56, 66, 89);">
<g>
	<circle cx="50" cy="50" r="30"/>
</g>
</g></g><g transform="translate(48,128) scale(0.08,0.08)"><g transform="" style="fill: rgb(56, 66, 89);">
<g>
	<circle cx="50" cy="50" r="30"/>
</g>
</g></g><g transform="translate(56,128) scale(0.08,0.08)"><g transform="" style="fill: rgb(56, 66, 89);">
<g>
	<circle cx="50" cy="50" r="30"/>
</g>
</g></g><g transform="translate(72,128) scale(0.08,0.08)"><g transform="" style="fill: rgb(56, 66, 89);">
<g>
	<circle cx="50" cy="50" r="30"/>
</g>
</g></g><g transform="translate(80,128) scale(0.08,0.08)"><g transform="" style="fill: rgb(56, 66, 89);">
<g>
	<circle cx="50" cy="50" r="30"/>
</g>
</g></g><g transform="translate(88,128) scale(0.08,0.08)"><g transform="" style="fill: rgb(56, 66, 89);">
<g>
	<circle cx="50" cy="50" r="30"/>
</g>
</g></g><g transform="translate(104,128) scale(0.08,0.08)"><g transform="" style="fill: rgb(56, 66, 89);">
<g>
	<circle cx="50" cy="50" r="30"/>
</g>
</g></g><g transform="translate(128,128) scale(0.08,0.08)"><g transform="" style="fill: rgb(56, 66, 89);">
<g>
	<circle cx="50" cy="50" r="30"/>
</g>
</g></g><g transform="translate(136,128) scale(0.08,0.08)"><g transform="" style="fill: rgb(56, 66, 89);">
<g>
	<circle cx="50" cy="50" r="30"/>
</g>
</g></g><g transform="translate(144,128) scale(0.08,0.08)"><g transform="" style="fill: rgb(56, 66, 89);">
<g>
	<circle cx="50" cy="50" r="30"/>
</g>
</g></g><g transform="translate(152,128) scale(0.08,0.08)"><g transform="" style="fill: rgb(56, 66, 89);">
<g>
	<circle cx="50" cy="50" r="30"/>
</g>
</g></g><g transform="translate(160,128) scale(0.08,0.08)"><g transform="" style="fill: rgb(56, 66, 89);">
<g>
	<circle cx="50" cy="50" r="30"/>
</g>
</g></g><g transform="translate(168,128) scale(0.08,0.08)"><g transform="" style="fill: rgb(56, 66, 89);">
<g>
	<circle cx="50" cy="50" r="30"/>
</g>
</g></g><g transform="translate(176,128) scale(0.08,0.08)"><g transform="" style="fill: rgb(56, 66, 89);">
<g>
	<circle cx="50" cy="50" r="30"/>
</g>
</g></g><g transform="translate(184,128) scale(0.08,0.08)"><g transform="" style="fill: rgb(56, 66, 89);">
<g>
	<circle cx="50" cy="50" r="30"/>
</g>
</g></g><g transform="translate(192,128) scale(0.08,0.08)"><g transform="" style="fill: rgb(56, 66, 89);">
<g>
	<circle cx="50" cy="50" r="30"/>
</g>
</g></g><g transform="translate(64,136) scale(0.08,0.08)"><g transform="" style="fill: rgb(56, 66, 89);">
<g>
	<circle cx="50" cy="50" r="30"/>
</g>
</g></g><g transform="translate(72,136) scale(0.08,0.08)"><g transform="" style="fill: rgb(56, 66, 89);">
<g>
	<circle cx="50" cy="50" r="30"/>
</g>
</g></g><g transform="translate(88,136) scale(0.08,0.08)"><g transform="" style="fill: rgb(56, 66, 89);">
<g>
	<circle cx="50" cy="50" r="30"/>
</g>
</g></g><g transform="translate(96,136) scale(0.08,0.08)"><g transform="" style="fill: rgb(56, 66, 89);">
<g>
	<circle cx="50" cy="50" r="30"/>
</g>
</g></g><g transform="translate(104,136) scale(0.08,0.08)"><g transform="" style="fill: rgb(56, 66, 89);">
<g>
	<circle cx="50" cy="50" r="30"/>
</g>
</g></g><g transform="translate(128,136) scale(0.08,0.08)"><g transform="" style="fill: rgb(56, 66, 89);">
<g>
	<circle cx="50" cy="50" r="30"/>
</g>
</g></g><g transform="translate(160,136) scale(0.08,0.08)"><g transform="" style="fill: rgb(56, 66, 89);">
<g>
	<circle cx="50" cy="50" r="30"/>
</g>
</g></g><g transform="translate(176,136) scale(0.08,0.08)"><g transform="" style="fill: rgb(56, 66, 89);">
<g>
	<circle cx="50" cy="50" r="30"/>
</g>
</g></g><g transform="translate(192,136) scale(0.08,0.08)"><g transform="" style="fill: rgb(56, 66, 89);">
<g>
	<circle cx="50" cy="50" r="30"/>
</g>
</g></g><g transform="translate(64,144) scale(0.08,0.08)"><g transform="" style="fill: rgb(56, 66, 89);">
<g>
	<circle cx="50" cy="50" r="30"/>
</g>
</g></g><g transform="translate(72,144) scale(0.08,0.08)"><g transform="" style="fill: rgb(56, 66, 89);">
<g>
	<circle cx="50" cy="50" r="30"/>
</g>
</g></g><g transform="translate(80,144) scale(0.08,0.08)"><g transform="" style="fill: rgb(56, 66, 89);">
<g>
	<circle cx="50" cy="50" r="30"/>
</g>
</g></g><g transform="translate(104,144) scale(0.08,0.08)"><g transform="" style="fill: rgb(56, 66, 89);">
<g>
	<circle cx="50" cy="50" r="30"/>
</g>
</g></g><g transform="translate(128,144) scale(0.08,0.08)"><g transform="" style="fill: rgb(56, 66, 89);">
<g>
	<circle cx="50" cy="50" r="30"/>
</g>
</g></g><g transform="translate(144,144) scale(0.08,0.08)"><g transform="" style="fill: rgb(56, 66, 89);">
<g>
	<circle cx="50" cy="50" r="30"/>
</g>
</g></g><g transform="translate(160,144) scale(0.08,0.08)"><g transform="" style="fill: rgb(56, 66, 89);">
<g>
	<circle cx="50" cy="50" r="30"/>
</g>
</g></g><g transform="translate(176,144) scale(0.08,0.08)"><g transform="" style="fill: rgb(56, 66, 89);">
<g>
	<circle cx="50" cy="50" r="30"/>
</g>
</g></g><g transform="translate(184,144) scale(0.08,0.08)"><g transform="" style="fill: rgb(56, 66, 89);">
<g>
	<circle cx="50" cy="50" r="30"/>
</g>
</g></g><g transform="translate(192,144) scale(0.08,0.08)"><g transform="" style="fill: rgb(56, 66, 89);">
<g>
	<circle cx="50" cy="50" r="30"/>
</g>
</g></g><g transform="translate(64,152) scale(0.08,0.08)"><g transform="" style="fill: rgb(56, 66, 89);">
<g>
	<circle cx="50" cy="50" r="30"/>
</g>
</g></g><g transform="translate(88,152) scale(0.08,0.08)"><g transform="" style="fill: rgb(56, 66, 89);">
<g>
	<circle cx="50" cy="50" r="30"/>
</g>
</g></g><g transform="translate(112,152) scale(0.08,0.08)"><g transform="" style="fill: rgb(56, 66, 89);">
<g>
	<circle cx="50" cy="50" r="30"/>
</g>
</g></g><g transform="translate(120,152) scale(0.08,0.08)"><g transform="" style="fill: rgb(56, 66, 89);">
<g>
	<circle cx="50" cy="50" r="30"/>
</g>
</g></g><g transform="translate(128,152) scale(0.08,0.08)"><g transform="" style="fill: rgb(56, 66, 89);">
<g>
	<circle cx="50" cy="50" r="30"/>
</g>
</g></g><g transform="translate(160,152) scale(0.08,0.08)"><g transform="" style="fill: rgb(56, 66, 89);">
<g>
	<circle cx="50" cy="50" r="30"/>
</g>
</g></g><g transform="translate(184,152) scale(0.08,0.08)"><g transform="" style="fill: rgb(56, 66, 89);">
<g>
	<circle cx="50" cy="50" r="30"/>
</g>
</g></g><g transform="translate(192,152) scale(0.08,0.08)"><g transform="" style="fill: rgb(56, 66, 89);">
<g>
	<circle cx="50" cy="50" r="30"/>
</g>
</g></g><g transform="translate(72,160) scale(0.08,0.08)"><g transform="" style="fill: rgb(56, 66, 89);">
<g>
	<circle cx="50" cy="50" r="30"/>
</g>
</g></g><g transform="translate(112,160) scale(0.08,0.08)"><g transform="" style="fill: rgb(56, 66, 89);">
<g>
	<circle cx="50" cy="50" r="30"/>
</g>
</g></g><g transform="translate(128,160) scale(0.08,0.08)"><g transform="" style="fill: rgb(56, 66, 89);">
<g>
	<circle cx="50" cy="50" r="30"/>
</g>
</g></g><g transform="translate(136,160) scale(0.08,0.08)"><g transform="" style="fill: rgb(56, 66, 89);">
<g>
	<circle cx="50" cy="50" r="30"/>
</g>
</g></g><g transform="translate(144,160) scale(0.08,0.08)"><g transform="" style="fill: rgb(56, 66, 89);">
<g>
	<circle cx="50" cy="50" r="30"/>
</g>
</g></g><g transform="translate(152,160) scale(0.08,0.08)"><g transform="" style="fill: rgb(56, 66, 89);">
<g>
	<circle cx="50" cy="50" r="30"/>
</g>
</g></g><g transform="translate(160,160) scale(0.08,0.08)"><g transform="" style="fill: rgb(56, 66, 89);">
<g>
	<circle cx="50" cy="50" r="30"/>
</g>
</g></g><g transform="translate(168,160) scale(0.08,0.08)"><g transform="" style="fill: rgb(56, 66, 89);">
<g>
	<circle cx="50" cy="50" r="30"/>
</g>
</g></g><g transform="translate(192,160) scale(0.08,0.08)"><g transform="" style="fill: rgb(56, 66, 89);">
<g>
	<circle cx="50" cy="50" r="30"/>
</g>
</g></g><g transform="translate(64,168) scale(0.08,0.08)"><g transform="" style="fill: rgb(56, 66, 89);">
<g>
	<circle cx="50" cy="50" r="30"/>
</g>
</g></g><g transform="translate(72,168) scale(0.08,0.08)"><g transform="" style="fill: rgb(56, 66, 89);">
<g>
	<circle cx="50" cy="50" r="30"/>
</g>
</g></g><g transform="translate(80,168) scale(0.08,0.08)"><g transform="" style="fill: rgb(56, 66, 89);">
<g>
	<circle cx="50" cy="50" r="30"/>
</g>
</g></g><g transform="translate(88,168) scale(0.08,0.08)"><g transform="" style="fill: rgb(56, 66, 89);">
<g>
	<circle cx="50" cy="50" r="30"/>
</g>
</g></g><g transform="translate(136,168) scale(0.08,0.08)"><g transform="" style="fill: rgb(56, 66, 89);">
<g>
	<circle cx="50" cy="50" r="30"/>
</g>
</g></g><g transform="translate(144,168) scale(0.08,0.08)"><g transform="" style="fill: rgb(56, 66, 89);">
<g>
	<circle cx="50" cy="50" r="30"/>
</g>
</g></g><g transform="translate(160,168) scale(0.08,0.08)"><g transform="" style="fill: rgb(56, 66, 89);">
<g>
	<circle cx="50" cy="50" r="30"/>
</g>
</g></g><g transform="translate(168,168) scale(0.08,0.08)"><g transform="" style="fill: rgb(56, 66, 89);">
<g>
	<circle cx="50" cy="50" r="30"/>
</g>
</g></g><g transform="translate(176,168) scale(0.08,0.08)"><g transform="" style="fill: rgb(56, 66, 89);">
<g>
	<circle cx="50" cy="50" r="30"/>
</g>
</g></g><g transform="translate(184,168) scale(0.08,0.08)"><g transform="" style="fill: rgb(56, 66, 89);">
<g>
	<circle cx="50" cy="50" r="30"/>
</g>
</g></g><g transform="translate(192,168) scale(0.08,0.08)"><g transform="" style="fill: rgb(56, 66, 89);">
<g>
	<circle cx="50" cy="50" r="30"/>
</g>
</g></g><g transform="translate(64,176) scale(0.08,0.08)"><g transform="" style="fill: rgb(56, 66, 89);">
<g>
	<circle cx="50" cy="50" r="30"/>
</g>
</g></g><g transform="translate(88,176) scale(0.08,0.08)"><g transform="" style="fill: rgb(56, 66, 89);">
<g>
	<circle cx="50" cy="50" r="30"/>
</g>
</g></g><g transform="translate(120,176) scale(0.08,0.08)"><g transform="" style="fill: rgb(56, 66, 89);">
<g>
	<circle cx="50" cy="50" r="30"/>
</g>
</g></g><g transform="translate(136,176) scale(0.08,0.08)"><g transform="" style="fill: rgb(56, 66, 89);">
<g>
	<circle cx="50" cy="50" r="30"/>
</g>
</g></g><g transform="translate(144,176) scale(0.08,0.08)"><g transform="" style="fill: rgb(56, 66, 89);">
<g>
	<circle cx="50" cy="50" r="30"/>
</g>
</g></g><g transform="translate(160,176) scale(0.08,0.08)"><g transform="" style="fill: rgb(56, 66, 89);">
<g>
	<circle cx="50" cy="50" r="30"/>
</g>
</g></g><g transform="translate(176,176) scale(0.08,0.08)"><g transform="" style="fill: rgb(56, 66, 89);">
<g>
	<circle cx="50" cy="50" r="30"/>
</g>
</g></g><g transform="translate(184,176) scale(0.08,0.08)"><g transform="" style="fill: rgb(56, 66, 89);">
<g>
	<circle cx="50" cy="50" r="30"/>
</g>
</g></g><g transform="translate(72,184) scale(0.08,0.08)"><g transform="" style="fill: rgb(56, 66, 89);">
<g>
	<circle cx="50" cy="50" r="30"/>
</g>
</g></g><g transform="translate(80,184) scale(0.08,0.08)"><g transform="" style="fill: rgb(56, 66, 89);">
<g>
	<circle cx="50" cy="50" r="30"/>
</g>
</g></g><g transform="translate(88,184) scale(0.08,0.08)"><g transform="" style="fill: rgb(56, 66, 89);">
<g>
	<circle cx="50" cy="50" r="30"/>
</g>
</g></g><g transform="translate(104,184) scale(0.08,0.08)"><g transform="" style="fill: rgb(56, 66, 89);">
<g>
	<circle cx="50" cy="50" r="30"/>
</g>
</g></g><g transform="translate(112,184) scale(0.08,0.08)"><g transform="" style="fill: rgb(56, 66, 89);">
<g>
	<circle cx="50" cy="50" r="30"/>
</g>
</g></g><g transform="translate(120,184) scale(0.08,0.08)"><g transform="" style="fill: rgb(56, 66, 89);">
<g>
	<circle cx="50" cy="50" r="30"/>
</g>
</g></g><g transform="translate(144,184) scale(0.08,0.08)"><g transform="" style="fill: rgb(56, 66, 89);">
<g>
	<circle cx="50" cy="50" r="30"/>
</g>
</g></g><g transform="translate(160,184) scale(0.08,0.08)"><g transform="" style="fill: rgb(56, 66, 89);">
<g>
	<circle cx="50" cy="50" r="30"/>
</g>
</g></g><g transform="translate(176,184) scale(0.08,0.08)"><g transform="" style="fill: rgb(56, 66, 89);">
<g>
	<circle cx="50" cy="50" r="30"/>
</g>
</g></g><g transform="translate(64,192) scale(0.08,0.08)"><g transform="" style="fill: rgb(56, 66, 89);">
<g>
	<circle cx="50" cy="50" r="30"/>
</g>
</g></g><g transform="translate(72,192) scale(0.08,0.08)"><g transform="" style="fill: rgb(56, 66, 89);">
<g>
	<circle cx="50" cy="50" r="30"/>
</g>
</g></g><g transform="translate(104,192) scale(0.08,0.08)"><g transform="" style="fill: rgb(56, 66, 89);">
<g>
	<circle cx="50" cy="50" r="30"/>
</g>
</g></g><g transform="translate(112,192) scale(0.08,0.08)"><g transform="" style="fill: rgb(56, 66, 89);">
<g>
	<circle cx="50" cy="50" r="30"/>
</g>
</g></g><g transform="translate(144,192) scale(0.08,0.08)"><g transform="" style="fill: rgb(56, 66, 89);">
<g>
	<circle cx="50" cy="50" r="30"/>
</g>
</g></g><g transform="translate(152,192) scale(0.08,0.08)"><g transform="" style="fill: rgb(56, 66, 89);">
<g>
	<circle cx="50" cy="50" r="30"/>
</g>
</g></g><g transform="translate(160,192) scale(0.08,0.08)"><g transform="" style="fill: rgb(56, 66, 89);">
<g>
	<circle cx="50" cy="50" r="30"/>
</g>
</g></g><g transform="translate(168,192) scale(0.08,0.08)"><g transform="" style="fill: rgb(56, 66, 89);">
<g>
	<circle cx="50" cy="50" r="30"/>
</g>
</g></g><g transform="translate(176,192) scale(0.08,0.08)"><g transform="" style="fill: rgb(56, 66, 89);">
<g>
	<circle cx="50" cy="50" r="30"/>
</g>
</g></g><g transform="translate(184,192) scale(0.08,0.08)"><g transform="" style="fill: rgb(56, 66, 89);">
<g>
	<circle cx="50" cy="50" r="30"/>
</g>
</g></g><g transform="translate(192,192) scale(0.08,0.08)"><g transform="" style="fill: rgb(56, 66, 89);">
<g>
	<circle cx="50" cy="50" r="30"/>
</g>
</g></g><g transform="translate(0,0) scale(0.56, 0.56)"><g transform=" translate(100, 0) scale(-1,1) " style="fill: rgb(56, 66, 89);">
<g>
	<path style="fill:none;" d="M85,66.221V33.75C85,23.411,76.414,15,65.859,15H34.14C23.586,15,15,23.411,15,33.75v51.246
		l50.855-0.016C76.414,84.98,85,76.564,85,66.221z"/>
	<path d="M100,66.221V33.75C100,15.141,84.68,0,65.859,0H34.14C15.32,0,0,15.141,0,33.75V100l65.859-0.02
		C84.68,99.98,100,84.84,100,66.221z M85,66.221c0,10.344-8.586,18.76-19.145,18.76L15,84.996V33.75C15,23.411,23.586,15,34.14,15
		h31.719C76.414,15,85,23.411,85,33.75V66.221z"/>
</g>
</g></g><g transform="translate(144,0) scale(0.56, 0.56)"><g transform="" style="fill: rgb(56, 66, 89);">
<g>
	<path style="fill:none;" d="M85,66.221V33.75C85,23.411,76.414,15,65.859,15H34.14C23.586,15,15,23.411,15,33.75v51.246
		l50.855-0.016C76.414,84.98,85,76.564,85,66.221z"/>
	<path d="M100,66.221V33.75C100,15.141,84.68,0,65.859,0H34.14C15.32,0,0,15.141,0,33.75V100l65.859-0.02
		C84.68,99.98,100,84.84,100,66.221z M85,66.221c0,10.344-8.586,18.76-19.145,18.76L15,84.996V33.75C15,23.411,23.586,15,34.14,15
		h31.719C76.414,15,85,23.411,85,33.75V66.221z"/>
</g>
</g></g><g transform="translate(0,144) scale(0.56, 0.56)"><g transform=" translate(100, 0) scale(-1,1)  translate(0,100) scale(1,-1) " style="fill: rgb(56, 66, 89);">
<g>
	<path style="fill:none;" d="M85,66.221V33.75C85,23.411,76.414,15,65.859,15H34.14C23.586,15,15,23.411,15,33.75v51.246
		l50.855-0.016C76.414,84.98,85,76.564,85,66.221z"/>
	<path d="M100,66.221V33.75C100,15.141,84.68,0,65.859,0H34.14C15.32,0,0,15.141,0,33.75V100l65.859-0.02
		C84.68,99.98,100,84.84,100,66.221z M85,66.221c0,10.344-8.586,18.76-19.145,18.76L15,84.996V33.75C15,23.411,23.586,15,34.14,15
		h31.719C76.414,15,85,23.411,85,33.75V66.221z"/>
</g>
</g></g><g transform="translate(16,16) scale(0.24, 0.24)"><g transform="" style="fill: rgb(56, 66, 89);">
<g>
	<circle cx="17.33" cy="17.33" r="16.83"/>
	<circle cx="50" cy="17.33" r="16.83"/>
	<circle cx="82.67" cy="17.33" r="16.83"/>
	<circle cx="17.33" cy="82.67" r="16.83"/>
	<circle cx="50" cy="82.67" r="16.83"/>
	<circle cx="82.67" cy="82.67" r="16.83"/>
	<circle cx="17.33" cy="50" r="16.83"/>
	<circle cx="50" cy="50" r="16.83"/>
	<circle cx="82.67" cy="50" r="16.83"/>
</g>
</g></g><g transform="translate(160,16) scale(0.24, 0.24)"><g transform="" style="fill: rgb(56, 66, 89);">
<g>
	<circle cx="17.33" cy="17.33" r="16.83"/>
	<circle cx="50" cy="17.33" r="16.83"/>
	<circle cx="82.67" cy="17.33" r="16.83"/>
	<circle cx="17.33" cy="82.67" r="16.83"/>
	<circle cx="50" cy="82.67" r="16.83"/>
	<circle cx="82.67" cy="82.67" r="16.83"/>
	<circle cx="17.33" cy="50" r="16.83"/>
	<circle cx="50" cy="50" r="16.83"/>
	<circle cx="82.67" cy="50" r="16.83"/>
</g>
</g></g><g transform="translate(16,160) scale(0.24, 0.24)"><g transform="" style="fill: rgb(56, 66, 89);">
<g>
	<circle cx="17.33" cy="17.33" r="16.83"/>
	<circle cx="50" cy="17.33" r="16.83"/>
	<circle cx="82.67" cy="17.33" r="16.83"/>
	<circle cx="17.33" cy="82.67" r="16.83"/>
	<circle cx="50" cy="82.67" r="16.83"/>
	<circle cx="82.67" cy="82.67" r="16.83"/>
	<circle cx="17.33" cy="50" r="16.83"/>
	<circle cx="50" cy="50" r="16.83"/>
	<circle cx="82.67" cy="50" r="16.83"/>
</g>
</g></g></g></svg>
